<svg xmlns="http://www.w3.org/2000/svg" width="88" height="21" viewBox="0 0 88 21" fill="none"><path d="M67.46 20.94L56.15 1.36016C55.37 0.0101563 53.42 0.0101563 52.64 1.36016L48.62 8.33013C47.65 10.0001 45.24 10.0001 44.27 8.33013L40.25 1.36016C39.47 0.0101563 37.52 0.0101563 36.74 1.36016L27.1899 17.9C26.4099 19.25 27.3799 20.94 28.9399 20.94H44.84H48.04H67.46Z" fill="#1D1D1B"></path><path d="M86.35 8.55015L72.63 0.629986C71.51 -0.0200143 70.11 0.790191 70.11 2.09019V20.8402L86.35 11.4601C87.47 10.8201 87.47 9.20015 86.35 8.55015Z" fill="#1D1D1B"></path><path d="M10.4499 1.35015L0.900015 17.8899C0.120015 19.2399 1.09002 20.93 2.65002 20.93H25.26L13.9499 1.35015C13.1799 0.000146508 11.2299 0.000146508 10.4499 1.35015Z" fill="#1D1D1B"></path><path d="M10.4499 1.35015L0.900015 17.8899C0.120015 19.2399 1.09002 20.93 2.65002 20.93H25.26L13.9499 1.35015C13.1799 0.000146508 11.2299 0.000146508 10.4499 1.35015Z" fill="#1D1D1B"></path><mask id="mask0_1_3356" style="mask-type:luminance" maskUnits="userSpaceOnUse" x="0" y="0" width="26" height="21"><path d="M10.4499 1.35015L0.900015 17.8899C0.120015 19.2399 1.09002 20.93 2.65002 20.93H25.26L13.9499 1.35015C13.1799 0.000146508 11.2299 0.000146508 10.4499 1.35015Z" fill="white"></path></mask><g mask="url(#mask0_1_3356)"><path d="M2.60999 49.9099C14.1859 49.9099 23.5699 40.5258 23.5699 28.95C23.5699 17.3741 14.1859 7.98999 2.60999 7.98999C-8.9659 7.98999 -18.35 17.3741 -18.35 28.95C-18.35 40.5258 -8.9659 49.9099 2.60999 49.9099Z" fill="#1D1D1B"></path></g><path d="M86.35 8.55015L72.63 0.629986C71.51 -0.0200143 70.11 0.790191 70.11 2.09019V20.8402L86.35 11.4601C87.47 10.8201 87.47 9.20015 86.35 8.55015Z" fill="#1D1D1B"></path><mask id="mask1_1_3356" style="mask-type:luminance" maskUnits="userSpaceOnUse" x="70" y="0" width="18" height="21"><path d="M86.35 8.55015L72.63 0.629986C71.51 -0.0200143 70.11 0.790191 70.11 2.09019V20.8402L86.35 11.4601C87.47 10.8201 87.47 9.20015 86.35 8.55015Z" fill="white"></path></mask><g mask="url(#mask1_1_3356)"><path d="M100.14 54.3899C116.731 54.3899 130.18 40.9407 130.18 24.3501C130.18 7.75946 116.731 -5.68994 100.14 -5.68994C83.5494 -5.68994 70.1 7.75946 70.1 24.3501C70.1 40.9407 83.5494 54.3899 100.14 54.3899Z" fill="#1D1D1B"></path></g><path d="M86.35 8.55015L72.63 0.629986C71.51 -0.0200143 70.11 0.790191 70.11 2.09019V20.8402L86.35 11.4601C87.47 10.8201 87.47 9.20015 86.35 8.55015Z" fill="#1D1D1B"></path><mask id="mask2_1_3356" style="mask-type:luminance" maskUnits="userSpaceOnUse" x="70" y="0" width="18" height="21"><path d="M86.35 8.55015L72.63 0.629986C71.51 -0.0200143 70.11 0.790191 70.11 2.09019V20.8402L86.35 11.4601C87.47 10.8201 87.47 9.20015 86.35 8.55015Z" fill="white"></path></mask><g mask="url(#mask2_1_3356)"><path d="M53.3199 55.5901C69.9106 55.5901 83.36 42.1407 83.36 25.55C83.36 8.95942 69.9106 -4.48999 53.3199 -4.48999C36.7293 -4.48999 23.28 8.95942 23.28 25.55C23.28 42.1407 36.7293 55.5901 53.3199 55.5901Z" fill="#1D1D1B"></path></g><path d="M67.46 20.94L56.15 1.36016C55.37 0.0101563 53.42 0.0101563 52.64 1.36016L48.62 8.33013C47.65 10.0001 45.24 10.0001 44.27 8.33013L40.25 1.36016C39.47 0.0101563 37.52 0.0101563 36.74 1.36016L27.1899 17.9C26.4099 19.25 27.3799 20.94 28.9399 20.94H44.84H48.04H67.46Z" fill="#1D1D1B"></path><mask id="mask3_1_3356" style="mask-type:luminance" maskUnits="userSpaceOnUse" x="26" y="0" width="42" height="21"><path d="M67.46 20.94L56.15 1.36016C55.37 0.0101563 53.42 0.0101563 52.64 1.36016L48.62 8.33013C47.65 10.0001 45.24 10.0001 44.27 8.33013L40.25 1.36016C39.47 0.0101563 37.52 0.0101563 36.74 1.36016L27.1899 17.9C26.4099 19.25 27.3799 20.94 28.9399 20.94H44.84H48.04H67.46Z" fill="white"></path></mask><g mask="url(#mask3_1_3356)"><path d="M76.36 59.25C92.9506 59.25 106.4 45.8006 106.4 29.21C106.4 12.6193 92.9506 -0.830078 76.36 -0.830078C59.7694 -0.830078 46.3199 12.6193 46.3199 29.21C46.3199 45.8006 59.7694 59.25 76.36 59.25Z" fill="#1D1D1B"></path></g></svg>